<svg width="24" height="23" viewBox="0 0 24 23" fill="none" xmlns="http://www.w3.org/2000/svg">
<path d="M12 0C18.6165 0 24 4.35 24 9.6975C24 11.8575 23.1555 13.8165 21.4155 15.684C18.993 18.417 13.6185 21.7485 12.303 22.284C12.144 22.35 11.784 22.5 11.3925 22.5C11.1324 22.5066 10.8776 22.4252 10.6695 22.269C10.1355 21.858 10.2435 21.189 10.2855 20.934L10.4445 19.959C10.503 19.515 10.461 19.3725 10.4535 19.353C10.4745 19.41 10.323 19.3245 10.002 19.2585C4.2315 18.51 0 14.484 0 9.6975C0 4.3515 5.3835 0 12 0ZM4.7475 6.711C4.395 6.711 4.1025 6.996 4.1025 7.3425V12.132C4.1025 12.477 4.395 12.762 4.7475 12.762H7.188C7.542 12.762 7.833 12.477 7.833 12.132C7.83102 11.9628 7.762 11.8013 7.64108 11.6829C7.52016 11.5645 7.35722 11.4989 7.188 11.5005H5.391V7.3425C5.38863 7.17381 5.31964 7.0129 5.19909 6.89488C5.07854 6.77686 4.9162 6.7098 4.7475 6.711ZM9.0675 6.711C8.712 6.711 8.4225 6.996 8.4225 7.3425V12.132C8.4225 12.477 8.712 12.762 9.0645 12.762C9.42 12.762 9.7095 12.477 9.7095 12.132V7.3425C9.70674 7.1742 9.63784 7.01374 9.5177 6.89584C9.39755 6.77795 9.23583 6.71058 9.0675 6.711ZM14.937 6.711C14.5815 6.711 14.292 6.996 14.292 7.3425V10.3095L11.775 6.9675C11.7141 6.89074 11.6372 6.82816 11.5496 6.78413C11.462 6.74009 11.366 6.71565 11.268 6.7125C11.1846 6.71151 11.1019 6.72707 11.0246 6.75829C10.9473 6.7895 10.877 6.83575 10.8177 6.89435C10.7584 6.95295 10.7113 7.02274 10.6792 7.09966C10.647 7.17659 10.6305 7.25913 10.6305 7.3425V12.132C10.6305 12.477 10.9155 12.762 11.271 12.762C11.631 12.762 11.916 12.477 11.916 12.132V9.18L14.4135 12.51C14.4741 12.5904 14.5532 12.6552 14.644 12.6988C14.7348 12.7424 14.8348 12.7635 14.9355 12.7605C15.0194 12.7625 15.1028 12.7477 15.1809 12.7171C15.2589 12.6864 15.3301 12.6404 15.3902 12.5819C15.4502 12.5233 15.498 12.4534 15.5307 12.3761C15.5634 12.2989 15.5803 12.2159 15.5805 12.132V7.3425C15.5766 7.17431 15.5071 7.0143 15.3869 6.89661C15.2667 6.77891 15.1052 6.71135 14.937 6.711ZM19.527 6.711H17.0865C16.7295 6.711 16.4415 6.996 16.4415 7.3425V12.132C16.4415 12.477 16.7295 12.762 17.0835 12.762H19.524C19.881 12.762 20.169 12.477 20.169 12.132C20.1684 12.0481 20.1512 11.9651 20.1184 11.8879C20.0857 11.8107 20.0379 11.7407 19.978 11.682C19.918 11.6233 19.847 11.577 19.7691 11.5459C19.6912 11.5147 19.6079 11.4993 19.524 11.5005H17.73V10.3695H19.5255C19.8825 10.3695 20.1705 10.0845 20.1705 9.7395C20.1699 9.65546 20.1527 9.57236 20.12 9.49496C20.0872 9.41756 20.0395 9.34738 19.9796 9.28844C19.9197 9.2295 19.8488 9.18296 19.7708 9.15148C19.6929 9.12 19.6095 9.10421 19.5255 9.105H17.73V7.9755H19.5255C19.6095 7.97649 19.6928 7.96088 19.7707 7.92957C19.8486 7.89826 19.9196 7.85186 19.9795 7.79304C20.0395 7.73422 20.0872 7.66414 20.12 7.58682C20.1527 7.5095 20.1699 7.42647 20.1705 7.3425C20.1685 7.17395 20.0999 7.01304 19.9796 6.89497C19.8592 6.77691 19.6971 6.7113 19.5285 6.7125L19.527 6.711Z" fill="white"/>
</svg>
